PathFileType	4	(X/Y/Z)	C:/Users/beibeiliu/ov580/test_trc\sequence.3_training_dense_left.trc
DataRate	CameraRate	NumFrames	NumMarkers	Units	OrigDataRate	OrigDataStartFrame	OrigNumFrames
120	120	19	19	mm	120	1	319
Frame#	Time	ThumbCMC			ThumbMCP			ThumbIP			ThumbTip			IndexMCP			IndexPIP			IndexTip			MiddleMCP			MiddlePIP			MiddleTip			RingMCP			RingPIP			RingTip			PinkyMCP			PinkyPIP			PinkyTip			BackHand1			BackHand2			BackHand3	
		X0	Y0	Z0	X1	Y1	Z1	X2	Y2	Z2	X3	Y3	Z3	X4	Y4	Z4	X5	Y5	Z5	X6	Y6	Z6	X7	Y7	Z7	X8	Y8	Z8	X9	Y9	Z9	X10	Y10	Z10	X11	Y11	Z11	X12	Y12	Z12	X13	Y13	Z13	X14	Y14	Z14	X15	Y15	Z15	X16	Y16	Z16	X17	Y17	Z17	X18	Y18	Z18	
0	0	-99.7809	-61.2783	16.4498	-100.924	-89.5349	-0.169351	-116.762	-99.5251	-20.7132	-145.993	-86.8105	-28.482	-114.893	-94.179	-40.5871	-129.813	-115.048	-28.5874	-131.918	-102.938	3.13106	-132.426	-91.6241	-42.3027	-148.392	-107.795	-22.2588	-142.55	-86.9616	2.42099	-147.992	-85.5995	-36.9307	-154.704	-94.5395	-14.8671	-144.883	-74.2191	3.25362	-163.276	-72.1115	-33.0452	-163.711	-80.3423	-12.6715	-145.513	-65.4114	1.1527	-128.699	-38.7449	-30.0692	-126.93	-19.5231	-2.87365	-105.498	-40.2591	-10.3089	
1	0.00833333	-100.295	-60.9689	16.0876	-104.374	-94.0826	12.7999	-120.295	-106.977	-0.477561	-146.921	-106.503	-12.295	-110.027	-97.2847	-35.2149	-123.461	-113.391	-14.97	-117.98	-87.659	2.4414	-127.784	-98.6114	-33.5972	-138.678	-108.896	-11.583	-131.492	-78.12	3.23842	-147.079	-89.1742	-31.4041	-146.504	-96.6449	-5.61479	-137.177	-68.56	7.50752	-157.233	-76.7824	-27.7027	-156.507	-81.9185	-0.0188505	-144.079	-64.4411	8.95094	-132.914	-40.0515	-26.6907	-128.525	-21.5508	-6.58828	-105.796	-40.9272	-11.339	
2	0.0166667	-98.897	-56.4841	19.542	-101.1	-88.6623	21.1742	-116.27	-112.117	8.48739	-136.986	-113.774	0.282148	-101.564	-104.6	-23.3292	-115.083	-111.804	-4.24607	-107.343	-84.5891	6.92825	-123.244	-99.6218	-27.0282	-130.399	-108.318	0.0121654	-122.414	-78.0009	7.4428	-136.494	-94.2072	-23.6479	-138.906	-95.2218	6.19579	-133.973	-68.3917	10.4543	-154.601	-85.7536	-20.1366	-152.066	-84.9781	6.09993	-139.943	-64.8386	10.6099	-133.659	-44.9345	-26.904	-130.682	-25.2107	-7.291	-107.855	-38.8469	-9.90295	
3	0.025	-93.9513	-55.9354	19.6223	-97.0223	-85.2842	23.4943	-107.927	-107.38	16.0087	-127.845	-116.467	8.61893	-97.0289	-103.22	-16.0957	-104.463	-107.857	9.21519	-106.97	-81.0716	8.9469	-113.985	-101.234	-19.9183	-122.692	-106.929	9.08667	-119.374	-75.7313	8.63985	-130.071	-100.286	-15.2212	-133.196	-97.1672	12.1781	-128.644	-73.1542	15.7103	-145.067	-89.3941	-14.9286	-142.412	-89.6836	11.3922	-135.894	-65.5383	16.8857	-131.261	-52.4075	-25.8128	-135.753	-27.9746	-10.5589	-106.113	-40.6565	-11.4588	
4	0.0333333	-98.6299	-47.5595	23.3146	-92.6822	-81.8543	26.8314	-98.3105	-104.848	22.5296	-119.913	-118.538	11.43	-86.3536	-96.9612	-12.3814	-96.806	-109.188	10.1212	-99.2243	-78.5085	16.388	-104.724	-105.368	-13.9145	-112.949	-105.395	13.6519	-114.136	-77.1083	13.9006	-128.138	-100.42	-12.374	-125.882	-97.628	16.5215	-127.262	-70.1146	16.0359	-144.413	-94.2081	-9.22126	-136.817	-92.3635	13.0144	-133.607	-66.913	20.2977	-130.378	-52.2343	-24.5211	-131.728	-29.3974	-8.74278	-107.616	-39.1442	-8.4973	
5	0.0416667	-99.9647	-46.2861	29.0613	-92.7001	-75.377	32.8831	-93.6669	-100.061	23.0143	-108.456	-117.749	12.2769	-78.7737	-86.6034	-8.2296	-93.3998	-104.552	9.96853	-98.0259	-79.5671	21.5612	-100.733	-97.8063	-14.698	-107.272	-107.813	10.1393	-114.891	-77.4865	15.4367	-121.54	-96.5203	-13.9227	-125.124	-98.6668	14.5003	-128.017	-74.1263	19.4826	-136.218	-91.4395	-11.6513	-134.044	-93.4507	11.0368	-134.209	-68.648	20.7283	-125.872	-44.4086	-16.7296	-135.914	-25.5755	-2.56766	-105.722	-32.1434	1.80467	
6	0.05	-104.404	-42.568	40.2038	-93.0898	-71.4602	40.2999	-90.8158	-90.2909	31.1583	-94.5756	-109.252	14.8832	-76.6325	-77.6427	-7.13648	-80.2161	-98.3159	4.90589	-98.7139	-82.12	22.4492	-94.3121	-86.467	-16.2154	-99.326	-104.579	2.16279	-113.412	-77.6781	19.4633	-111.382	-84.1915	-15.67	-119.474	-97.9442	7.00191	-124.897	-71.0271	20.6937	-133.698	-85.0423	-14.7558	-133.487	-88.0636	11.5802	-133.989	-66.7076	21.918	-125.786	-37.5214	-8.22727	-141.831	-20.3797	5.19411	-112.78	-23.9826	11.0207	
7	0.0583333	-114.967	-41.9583	52.0606	-99.494	-68.2683	48.2074	-83.2858	-86.9562	36.5405	-79.1789	-104.038	20.3711	-70.1791	-64.4701	2.27796	-76.1526	-91.5744	6.99672	-98.7143	-85.6321	20.737	-84.9634	-72.9874	-12.3066	-93.916	-96.4219	-3.78088	-111.083	-77.5525	20.3063	-103.501	-73.2031	-16.3006	-117.732	-91.7603	-1.02316	-126.946	-73.2519	16.4397	-125.722	-75.6407	-18.6396	-129.648	-83.1174	2.48192	-133.134	-60.5235	19.9141	-125.561	-28.1481	-4.82356	-140.232	-15.9417	11.7052	-111.755	-19.927	25.4804	
8	0.0666667	-121.066	-49.6856	54.1236	-102.16	-70.1588	48.11	-85.5915	-81.0502	39.1149	-69.4239	-93.5326	23.069	-67.9532	-58.2322	15.2292	-71.8046	-87.6258	7.21944	-97.9385	-86.7259	23.0793	-77.7448	-60.5767	-4.12777	-90.5604	-89.1641	-7.57959	-111.379	-79.484	13.2502	-96.1183	-64.2201	-15.7789	-111.674	-84.319	-6.96204	-123.17	-67.4472	14.7311	-116.655	-59.158	-22.2987	-124.742	-75.6901	-4.66637	-132.979	-58.5533	16.2726	-117.79	-22.9318	5.21808	-141.632	-13.2419	19.783	-116.516	-23.419	35.9119	
9	0.075	-127.71	-54.8062	52.9306	-102.606	-74.6706	51.3416	-83.6641	-81.8948	44.9059	-67.6423	-85.9005	28.7389	-65.2602	-58.4104	23.3643	-63.6659	-79.9331	7.23946	-93.5607	-89.0867	13.9721	-70.2411	-57.2636	2.84612	-78.6028	-83.7925	-6.39471	-105.971	-79.343	8.62118	-86.6982	-58.564	-10.0158	-104.572	-78.1179	-12.0969	-120.959	-65.9885	9.69114	-105.209	-49.5617	-17.176	-120.935	-69.3014	-7.22175	-128.234	-56.1806	12.5778	-115.657	-18.6686	10.8109	-136.636	-13.6946	23.9554	-118.825	-27.3283	43.6921	
10	0.0833333	-125.576	-58.6823	53.3643	-102.229	-73.3159	50.3442	-79.5542	-77.5832	43.5295	-58.9653	-80.2146	31.1779	-63.5139	-54.9503	24.0105	-58.8387	-76.9492	10.6717	-89.4166	-85.8725	13.2881	-65.9224	-53.5275	4.40079	-72.1885	-77.365	-6.3613	-102.356	-74.6073	5.02437	-85.5363	-50.5088	-12.0556	-98.2899	-74.032	-12.537	-117.706	-64.5562	9.69307	-99.8959	-45.3627	-15.6973	-114.307	-67.0144	-9.72021	-124.851	-55.7513	10.0914	-114.471	-17.9101	14.7219	-135.598	-16.5831	25.8297	-118.831	-28.2711	44.2333	
11	0.0916667	-126.961	-58.2099	50.197	-98.9903	-72.6266	53.257	-75.7067	-73.2781	47.0772	-57.8778	-71.0261	33.2784	-59.9209	-49.511	26.9038	-54.7771	-71.7387	12.0542	-79.8997	-82.5311	14.1237	-65.0706	-46.9801	7.47687	-69.7149	-73.3886	-6.68426	-99.0066	-71.1834	10.6351	-82.4964	-46.204	-8.74967	-90.915	-72.0275	-8.95897	-114.284	-67.2917	6.89278	-94.9369	-48.0364	-15.0881	-106.108	-65.2474	-10.0835	-123.861	-55.8529	10.2496	-112.289	-15.8364	15.3727	-138.28	-15.2377	24.5704	-116.767	-30.9232	45.3184	
12	0.1	-120.252	-53.5423	50.684	-95.934	-64.023	49.657	-71.0515	-66.4718	48.2458	-50.5032	-63.742	36.6432	-56.396	-42.2368	27.7	-48.7686	-64.4731	15.7288	-73.2931	-77.606	18.4073	-61.0691	-43.354	8.35967	-66.3026	-69.8306	-3.65056	-93.5663	-69.9431	9.77953	-79.8594	-44.1884	-10.52	-87.5657	-71.7952	-4.57741	-109.811	-66.7393	10.3202	-95.3686	-42.2432	-17.6401	-102.081	-64.3802	-10.5096	-118.404	-57.42	13.2497	-110.447	-17.975	16.3551	-140.213	-17.9065	25.4324	-119.054	-27.7412	43.1855	
13	0.108333	-119.905	-53.5685	53.3964	-89.3701	-58.9273	54.7568	-66.0702	-55.7192	50.1695	-46.7052	-52.9197	35.6424	-60.1183	-32.007	25.7718	-45.2931	-52.9582	14.5963	-72.8985	-69.6681	22.6453	-59.2212	-36.9477	5.56075	-61.3533	-65.1081	-0.499795	-87.7743	-67.5428	13.4358	-76.6297	-43.5248	-8.69132	-82.5353	-67.4565	-5.94281	-104.34	-67.2987	12.1034	-90.7703	-45.0733	-15.2433	-101.603	-64.9926	-4.88653	-113.718	-56.8361	14.845	-112.302	-16.5522	13.5123	-139.089	-17.0335	24.0106	-121.169	-23.1112	43.7138	
14	0.116667	-116.246	-47.8395	56.4075	-89.4882	-52.2299	56.3414	-65.2085	-47.8151	51.9264	-47.0708	-42.4228	36.1037	-57.7169	-23.9112	22.5685	-45.4134	-45.0465	13.4163	-69.3517	-60.8889	24.1976	-61.5547	-28.9613	6.72601	-56.9309	-57.5324	0.870115	-87.7243	-59.0634	16.922	-76.4578	-39.0239	-8.51169	-80.2186	-65.4043	-3.15355	-99.091	-65.1805	14.3647	-92.6418	-44.9212	-18.6062	-96.6453	-63.4444	-6.40207	-114.022	-55.0729	17.5089	-118.439	-13.5643	8.80813	-139.482	-19.9443	22.061	-119.742	-19.3599	39.8928	
15	0.125	-114.131	-42.231	55.6961	-85.8187	-41.8059	54.0241	-61.1743	-34.1599	48.9424	-45.2648	-34.0321	36.1757	-59.6222	-15.5405	22.0871	-43.4599	-37.2096	15.9423	-70.8972	-53.4038	24.8165	-65.0037	-21.4819	1.08759	-55.328	-52.3864	2.21059	-81.5832	-56.7865	17.1063	-78.4496	-35.1473	-10.9381	-75.8747	-60.3888	-1.26755	-97.5331	-62.771	16.0439	-93.4832	-44.5619	-19.0749	-92.9186	-60.8394	-1.5798	-107.718	-52.3829	19.9026	-117.524	-14.3451	6.57855	-142.383	-20.7163	19.6663	-118.996	-13.9678	38.3385	
16	0.133333	-115.053	-36.9429	55.7735	-83.3883	-31.7855	52.8672	-64.7724	-25.7987	46.8634	-44.7804	-19.931	31.5172	-65.0435	-8.06001	18.0834	-47.8133	-31.0851	12.2989	-68.1884	-46.2288	25.2536	-69.6522	-16.9435	-3.09448	-55.0611	-44.3701	-2.83333	-79.5695	-51.9053	15.7281	-77.0679	-33.7063	-9.67461	-74.539	-59.657	0.20397	-96.8558	-59.843	20.5013	-91.9964	-45.5041	-17.2212	-90.0063	-59.4768	-0.449914	-104.227	-52.0405	19.2914	-124.744	-16.6176	3.38349	-143.518	-21.2117	16.6226	-122.752	-11.7604	31.9451	
17	0.141667	-114.459	-30.6457	54.9726	-88.7188	-28.0945	52.1972	-67.7082	-18.735	45.9968	-46.944	-12.1345	32.654	-68.6055	-0.858832	17.095	-49.9081	-23.1946	11.0308	-68.4891	-38.3521	25.3832	-68.1811	-12.7115	-6.49995	-53.6622	-35.7246	-1.7348	-81.5713	-45.5343	16.9559	-78.903	-32.2978	-14.2359	-70.9525	-54.194	-1.63319	-89.3263	-54.9362	22.3841	-92.6492	-41.9884	-17.9751	-88.3322	-58.5242	2.29326	-100.25	-52.4536	19.7371	-125.25	-16.4214	0.974744	-146.419	-25.2304	11.9558	-128.454	-12.4503	27.876	
18	0.15	-114.873	-25.6991	53.9741	-91.3005	-22.4073	50.0456	-67.1637	-9.02278	42.9407	-53.5156	-5.37948	27.6163	-74.6735	3.62657	12.9957	-51.1802	-13.2543	9.88451	-71.0791	-32.3023	22.898	-75.016	-6.43345	-7.44597	-56.6552	-33.0368	-4.11268	-76.5883	-43.7926	13.752	-82.7905	-27.663	-15.1686	-71.0293	-51.3165	-0.851336	-89.9994	-54.0284	22.9652	-94.331	-41.7986	-18.5048	-85.4459	-53.1793	3.36036	-96.706	-48.7263	21.6425	-129.356	-18.6434	1.39567	-151.622	-28.2643	13.0282	-131.615	-14.6018	26.5287	
